<?xml version="1.0" standalone="no"?>
<!DOCTYPE svg PUBLIC "-//W3C//DTD SVG 20010904//EN"
 "http://www.w3.org/TR/2001/REC-SVG-20010904/DTD/svg10.dtd">
<svg version="1.0" xmlns="http://www.w3.org/2000/svg"
 width="512.000000pt" height="512.000000pt" viewBox="0 0 512.000000 512.000000"
 preserveAspectRatio="xMidYMid meet">

<g transform="translate(0.000000,512.000000) scale(0.100000,-0.100000)"
fill="#000000" stroke="none">
<path d="M3615 4633 c-76 -10 -248 -59 -328 -93 -189 -82 -384 -236 -507 -401
-62 -83 -148 -243 -174 -326 l-17 -51 -67 39 c-138 81 -341 146 -522 169 -438
53 -905 -125 -1195 -459 -253 -289 -370 -638 -344 -1027 l8 -118 -74 -74
c-136 -136 -232 -303 -282 -490 -24 -86 -27 -116 -27 -262 0 -146 3 -176 27
-262 101 -380 390 -670 762 -768 148 -39 278 -41 1785 -37 1575 4 1479 0 1655
59 334 111 599 396 692 746 23 85 26 117 26 262 1 147 -2 176 -26 262 -61 228
-194 434 -365 567 l-70 55 88 87 c327 325 447 802 314 1247 -135 450 -517 785
-988 867 -81 14 -291 18 -371 8z m356 -168 c444 -77 784 -414 880 -870 18 -81
17 -313 0 -400 -16 -82 -63 -219 -99 -290 -63 -126 -213 -307 -307 -372 -30
-21 -32 -21 -69 -5 -36 16 -40 22 -58 92 -68 266 -276 502 -536 610 -200 84
-466 92 -656 19 -36 -13 -52 -16 -55 -8 -15 47 -161 240 -244 324 l-98 100 22
70 c63 204 204 399 384 534 124 93 314 174 474 201 79 13 274 11 362 -5z
m-1893 -671 c252 -52 469 -171 645 -353 92 -95 144 -168 215 -298 61 -113 73
-117 185 -70 235 101 482 85 700 -44 87 -52 200 -162 251 -246 45 -75 92 -202
102 -272 8 -63 32 -96 82 -112 78 -25 230 -111 301 -171 137 -116 245 -288
292 -468 32 -120 32 -308 1 -435 -84 -336 -357 -600 -694 -669 -68 -14 -249
-16 -1598 -16 -1347 0 -1530 2 -1597 16 -503 104 -820 611 -694 1109 44 171
164 361 296 467 36 28 68 63 71 75 4 13 1 57 -5 99 -57 383 75 782 349 1054
202 200 462 322 755 354 71 7 264 -4 343 -20z"/>
</g>
</svg>
